<svg width="56" height="47" viewBox="0 0 56 47" fill="none" xmlns="http://www.w3.org/2000/svg">
<g id="skill_2_shape">
<g id="Group">
<path id="leader_white_shape" d="M54.7 41.5H1.19995C0.899951 41.5 0.699951 41.7 0.699951 41.9V45.9C0.699951 46.1 0.899951 46.3 1.19995 46.3H51.9999C52.1999 46.3 52.2999 46.2 52.3999 46.1L54.9999 42.1C55.2999 41.9 55.1 41.5 54.7 41.5Z" fill="white"/>
<path id="Leader_deep_shape" d="M0.799927 41.5V46.4H48.5999L51.7999 41.5H0.799927Z" fill="#443641"/>
<path id="Management_white_shape" d="M54.7 27.8999H1.19995C0.899951 27.8999 0.699951 28.0999 0.699951 28.2999V32.2999C0.699951 32.4999 0.899951 32.6999 1.19995 32.6999H51.9999C52.1999 32.6999 52.2999 32.5999 52.3999 32.4999L54.9999 28.4999C55.2999 28.1999 55.1 27.8999 54.7 27.8999Z" fill="white"/>
<path id="Management_deep_shape" d="M0.799927 27.8999V32.6999H41.5999L44.7999 27.8999H0.799927Z" fill="#443641"/>
<path id="Teamwork_White_Shape" d="M54.7 14.2H1.19995C0.899951 14.2 0.699951 14.3999 0.699951 14.5999V18.5999C0.699951 18.7999 0.899951 18.9999 1.19995 18.9999H51.9999C52.1999 18.9999 52.2999 18.8999 52.3999 18.7999L54.9999 14.7999C55.2999 14.5999 55.1 14.2 54.7 14.2Z" fill="white"/>
<path id="Teamwork_deep_Shape" d="M0.799927 14.2V19.0999H30.9999L34.0999 14.2H0.799927Z" fill="#443641"/>
</g>
<g id="Group_2">
<path id="creativity_white_shape" d="M54.7 0.599976H1.19995C0.899951 0.599976 0.699951 0.8 0.699951 1V5C0.699951 5.2 0.899951 5.40002 1.19995 5.40002H51.9999C52.1999 5.40002 52.2999 5.30001 52.3999 5.20001L54.9999 1.20001C55.2999 1.00001 55.1 0.599976 54.7 0.599976Z" fill="white"/>
<path id="creativity_deep_shape" d="M0.799927 0.599976V5.40002H46.2999L49.4999 0.599976H0.799927Z" fill="#443641"/>
</g>
</g>
</svg>
